<svg xmlns="http://www.w3.org/2000/svg" width="29.15" height="29.738" viewBox="0 0 29.15 29.738"><defs><style>.a{fill:#4285f4;}.b{fill:#34a853;}.c{fill:#fbbc04;}.d{fill:#ea4335;}</style></defs><g transform="translate(0.05 0.018)"><path class="a" d="M286.381,226.121a17.489,17.489,0,0,0-.257-3.021H272.1v5.726h8.031a6.882,6.882,0,0,1-2.972,4.518v3.715h4.791A14.521,14.521,0,0,0,286.381,226.121Z" transform="translate(-257.281 -210.928)"/><path class="b" d="M42.187,336.32a14.233,14.233,0,0,0,9.856-3.589l-4.791-3.715A9.018,9.018,0,0,1,33.844,324.3H28.9v3.83A14.871,14.871,0,0,0,42.187,336.32Z" transform="translate(-27.368 -306.599)"/><path class="c" d="M6.471,159.523a8.906,8.906,0,0,1,0-5.693V150H1.532a14.881,14.881,0,0,0,0,13.353Z" transform="translate(0 -141.822)"/><path class="d" d="M42.187,5.867a8.08,8.08,0,0,1,5.7,2.229h0l4.245-4.245A14.29,14.29,0,0,0,42.187-.017,14.866,14.866,0,0,0,28.9,8.178l4.939,3.83A8.894,8.894,0,0,1,42.187,5.867Z" transform="translate(-27.368 0)"/></g></svg>